<svg width="489" height="259" xmlns="http://www.w3.org/2000/svg">
 <!-- Created with SVG Editor - http://github.com/mzalive/SVG Editor/ -->

 <g>
  <title>background</title>
  <rect fill="#fff" id="canvas_background" height="261" width="491" y="-1" x="-1"/>
  <g display="none" overflow="visible" y="0" x="0" height="100%" width="100%" id="canvasGrid">
   <rect fill="url(#gridpattern)" stroke-width="0" y="0" x="0" height="100%" width="100%"/>
  </g>
 </g>
 <g>
  <title>Layer 1</title>
  <defs>
   <radialGradient gradientUnits="userSpaceOnUse" gradientTransform="translate(26.52 -9.307)" r="18.384" cy="20.532" cx="-16.114" id="svg_4">
    <stop stop-color="#fff" offset="0"/>
    <stop stop-color="#4c6b96" offset="0.5"/>
    <stop stop-color="#231f20" offset="1"/>
   </radialGradient>
  </defs>
  <g id="svg_13">
   <ellipse transform="matrix(17.361109786563475,0,0,17.361109786563475,0,0) " id="svg_6" fill="url(#svg_4)" ry="7.365" rx="14" cy="7.487998" cx="14.169601"/>
   <ellipse transform="matrix(17.361109786563475,0,0,17.361109786563475,0,0) " id="svg_7" fill="#6280b6" ry="6.818" rx="13.453" cy="7.487998" cx="14.169601"/>
   <path id="svg_8" fill="#fff" d="m293.309017,168.194404l11.57986,-59.618051a30.416664,30.416664 0 0 0 -6.458333,-29.843748a50.850691,50.850691 0 0 0 -34.72222,-9.114583l-20.01736,0l5.746527,-29.513887a3.802083,3.802083 0 0 0 -3.732639,-4.513889l-27.777776,0a3.802083,3.802083 0 0 0 -3.732639,3.072916l-12.309027,63.298606a35.607636,35.607636 0 0 0 -8.281249,-18.29861a48.315969,48.315969 0 0 0 -38.194442,-14.010416l-53.50694,0a3.802083,3.802083 0 0 0 -3.732639,3.072916l-24.895831,128.12499a3.802083,3.802083 0 0 0 3.732639,4.513889l27.829859,0a3.802083,3.802083 0 0 0 3.732639,-3.072916l6.024305,-30.989581l20.833332,0a89.704854,89.704854 0 0 0 27.22222,-3.472222a53.263885,53.263885 0 0 0 19.965276,-11.961805a61.423606,61.423606 0 0 0 11.805555,-14.652777l-4.982639,25.607637a3.802083,3.802083 0 0 0 3.732639,4.513889l27.777776,0a3.802083,3.802083 0 0 0 3.732639,-3.072916l13.663193,-70.329856l18.993054,0c8.090277,0 10.416666,1.614583 11.11111,2.309028s1.736111,2.864583 0.434028,9.878471l-11.024305,56.684023a3.802083,3.802083 0 0 0 3.732639,4.513889l28.124998,0a3.802083,3.802083 0 0 0 3.59375,-3.125zm-128.385407,-49.201385a30.364581,30.364581 0 0 1 -9.739583,18.958332a37.690969,37.690969 0 0 1 -22.829859,5.572916l-12.36111,0l8.940972,-46.024302l15.989582,0c11.753471,0 16.475693,2.517361 18.385415,4.618055a20.503471,20.503471 0 0 1 1.614583,16.874999z"/>
   <path id="svg_9" fill="#fff" d="m411.729147,83.680522a48.315969,48.315969 0 0 0 -38.194442,-14.010416l-53.66319,0a3.802083,3.802083 0 0 0 -3.732639,3.072916l-24.895831,128.12499a3.802083,3.802083 0 0 0 3.732639,4.513889l27.916665,0a3.802083,3.802083 0 0 0 3.732639,-3.072916l6.024305,-30.989581l20.833332,0a89.704854,89.704854 0 0 0 27.22222,-3.472222a53.263885,53.263885 0 0 0 19.965276,-11.961805a59.461801,59.461801 0 0 0 18.680554,-33.454859a43.611108,43.611108 0 0 0 -7.621527,-38.749997zm-28.94097,35.312497a30.364581,30.364581 0 0 1 -9.739583,18.958332a37.690969,37.690969 0 0 1 -22.881943,5.555555l-12.326388,0l8.940972,-46.024302l15.989582,0c11.753471,0 16.475693,2.517361 18.385415,4.618055a20.503471,20.503471 0 0 1 1.631944,16.89236z"/>
   <path id="svg_10" fill="#000004" d="m144.923612,93.680521a28.559026,28.559026 0 0 1 21.197915,5.868055a23.263887,23.263887 0 0 1 2.517361,20.156248a33.767359,33.767359 0 0 1 -11.145832,21.232637a40.98958,40.98958 0 0 1 -25.138887,6.423611l-16.979165,0l10.416666,-53.628468l19.131943,-0.052083zm-68.003467,107.916658l27.916665,0l6.614583,-34.062497l23.906248,0a85.607632,85.607632 0 0 0 26.041665,-3.315972a49.305552,49.305552 0 0 0 18.576387,-11.145832a55.677079,55.677079 0 0 0 17.534721,-31.388886a39.930553,39.930553 0 0 0 -6.684027,-35.486108a44.58333,44.58333 0 0 0 -35.329858,-12.708332l-53.593746,0l-24.982637,128.107629z"/>
   <path id="svg_11" fill="#000004" d="m217.996523,39.409692l27.777776,0l-6.718749,34.062497l24.670137,0a48.038191,48.038191 0 0 1 32.118053,8.124999a26.874998,26.874998 0 0 1 5.295138,26.319442l-11.57986,59.618051l-28.107637,0l11.024305,-56.684023a15.381943,15.381943 0 0 0 -1.388889,-13.194443a19.461804,19.461804 0 0 0 -13.888888,-3.472222l-22.135415,0l-14.270832,73.402772l-27.777776,0l24.982637,-128.177074z"/>
   <path id="svg_12" fill="#000004" d="m362.788179,93.680521a28.559026,28.559026 0 0 1 21.197915,5.868055a23.263887,23.263887 0 0 1 2.517361,20.156248a33.767359,33.767359 0 0 1 -11.145832,21.232637a40.98958,40.98958 0 0 1 -25.19097,6.423611l-16.979165,0l10.416666,-53.628468l19.184026,-0.052083zm-68.003467,107.916658l27.916665,0l6.614583,-34.062497l23.906248,0a85.607632,85.607632 0 0 0 26.041665,-3.315972a49.305552,49.305552 0 0 0 18.576387,-11.145832a55.677079,55.677079 0 0 0 17.534721,-31.388886a39.930553,39.930553 0 0 0 -6.684027,-35.486108a44.58333,44.58333 0 0 0 -35.329858,-12.708332l-53.680551,0l-24.895831,128.107629z"/>
  </g>
 </g>
</svg>